<svg viewBox="0 0 499 126" xmlns="http://www.w3.org/2000/svg" fill-rule="evenodd" clip-rule="evenodd" stroke-linejoin="round" stroke-miterlimit="2"><g fill-rule="nonzero"><path d="M173.19 50.86a44.887 44.887 0 00-8.46.79 21.492 21.492 0 00-6.54 2.18L159 62a53.402 53.402 0 016.54-1.48 39.099 39.099 0 015.85-.44c7.447 0 11.17 2.85 11.17 8.55v1.92a39.634 39.634 0 00-7.33-.52c-6.52 0-11.67 1.453-15.45 4.36a14.363 14.363 0 00-5.67 12c0 10.473 7.157 15.71 21.47 15.71a67.753 67.753 0 0018.15-2.62v-30c.033-12.413-6.813-18.62-20.54-18.62zm9.42 41.89a26.727 26.727 0 01-7.16.87c-6.747 0-10.12-2.443-10.12-7.33 0-5.12 3.723-7.68 11.17-7.68 2.051-.1 4.106.075 6.11.52v13.62zM198.84 52.08h12.39l12.04 37.7 12.22-37.7h11.87l-18.5 48.87h-11.52l-18.5-48.87zM269 50.86a44.887 44.887 0 00-8.46.79 21.492 21.492 0 00-6.54 2.18l.87 8.2a53.402 53.402 0 016.54-1.48 39.099 39.099 0 015.85-.44c7.447 0 11.17 2.85 11.17 8.55v1.92a39.634 39.634 0 00-7.33-.52c-6.52 0-11.67 1.453-15.45 4.36a14.363 14.363 0 00-5.67 12c0 10.473 7.157 15.71 21.47 15.71a67.753 67.753 0 0018.15-2.62v-30c-.007-12.433-6.873-18.65-20.6-18.65zm9.42 41.89a26.727 26.727 0 01-7.16.87c-6.747 0-10.12-2.443-10.12-7.33 0-5.12 3.723-7.68 11.17-7.68 2.051-.1 4.106.075 6.11.52v13.62zM332.8 72.15c0-4.42-.843-7.473-2.53-9.16-1.687-1.687-4.687-2.53-9-2.53a24.43 24.43 0 00-3.75.35 39.52 39.52 0 00-4.1.87v39.27h-11.34V54.53a49.406 49.406 0 019.92-2.71 64.054 64.054 0 0110.82-1c14.193 0 21.29 6.4 21.29 19.2v30.89H332.8V72.15zM372.06 50.86a44.887 44.887 0 00-8.46.79 21.492 21.492 0 00-6.54 2.18l.87 8.2a53.402 53.402 0 016.54-1.48 39.099 39.099 0 015.85-.44c7.447 0 11.17 2.85 11.17 8.55v1.92a39.548 39.548 0 00-7.33-.52c-6.52 0-11.67 1.453-15.45 4.36a14.363 14.363 0 00-5.67 12c0 10.473 7.157 15.71 21.47 15.71a67.753 67.753 0 0018.15-2.62v-30c0-12.433-6.867-18.65-20.6-18.65zm9.42 41.89a26.727 26.727 0 01-7.16.87c-6.747 0-10.12-2.443-10.12-7.33 0-5.12 3.723-7.68 11.17-7.68 2.051-.1 4.106.075 6.11.52v13.62zM434.89 33.23v18.68a26.537 26.537 0 00-8.2-1c-7.447 0-13.497 2.413-18.15 7.24-4.653 4.827-6.987 11.14-7 18.94 0 8.147 2.27 14.37 6.81 18.67 4.54 4.3 11.173 6.453 19.9 6.46a69.945 69.945 0 0018-2.62V33.23h-11.36zm0 58.81a23.385 23.385 0 01-7 .7c-9.66 0-14.49-5.293-14.49-15.88 0-5.333 1.25-9.463 3.75-12.39 2.5-2.927 6.02-4.38 10.56-4.36a18.818 18.818 0 017.16 1.22l.02 30.71zM498.94 73.9c0-7.093-1.86-12.707-5.58-16.84-3.72-4.133-8.78-6.2-15.18-6.2-6.98 0-12.537 2.333-16.67 7-4.133 4.667-6.2 11-6.2 19s2.21 14.223 6.63 18.67c4.42 4.447 10.703 6.657 18.85 6.63A41.432 41.432 0 00496 99.38l-1.22-8.55a40.11 40.11 0 01-13.09 2.09c-9.56 0-14.457-4.307-14.69-12.92h31.94v-6.1zM467 71.45a14.543 14.543 0 013.4-8.73 9.604 9.604 0 017.42-3.14 9.347 9.347 0 017.33 3.14c1.86 2.093 2.79 5.003 2.79 8.73H467z" fill="#ff5800"/><path d="M32.79 31.2c-3.853 7.507-6.977 13.507-9.37 18a101.93 101.93 0 01-6.6 10.89 33.588 33.588 0 01-6.38 6.86 92.37 92.37 0 01-8.53 5.85L0 69.84c2.187-1.607 4.147-3.197 5.88-4.77a41.385 41.385 0 005.61-6.55 124.185 124.185 0 006.95-11.22c2.627-4.667 5.873-11 9.74-19a116.007 116.007 0 017.89-14.14 48.382 48.382 0 017.2-8.68A21.742 21.742 0 0150 1.13 16.697 16.697 0 0156.58 0c2.194.092 4.347.626 6.33 1.57a22.318 22.318 0 016.86 5.73 79.2 79.2 0 018.31 12.26c3.067 5.333 6.69 12.333 10.87 21a138.25 138.25 0 007.67 14 50.677 50.677 0 007.38 9.3 34.325 34.325 0 008.28 5.94 60.694 60.694 0 0010.28 4l2.44 4.11a54.33 54.33 0 01-12.51-2.71 32.56 32.56 0 01-10.21-6 53.38 53.38 0 01-9.14-10.43 126.89 126.89 0 01-9.11-16c-3.873-7.773-7.157-14.107-9.85-19A92.385 92.385 0 0067 12.43a21.58 21.58 0 00-5.61-5.51 10.62 10.62 0 00-5-1.52 11.485 11.485 0 00-5.25 1.08 17.666 17.666 0 00-5.36 4.2 57.363 57.363 0 00-6 8c-2.133 3.38-4.463 7.553-6.99 12.52z" fill="url(#_Linear1)"/><path d="M90.08 80.4a97.858 97.858 0 0016.84-.84 74.388 74.388 0 0014.75-3.45l.57 3.05c-7.68 4.9-18.46 7.107-32.34 6.62a72.61 72.61 0 01-16.23-2.17 69.763 69.763 0 01-12.12-4.38 111.89 111.89 0 01-7.6-3.8 91.81 91.81 0 00-7.36-3.63A62.3 62.3 0 0039 69a33.417 33.417 0 00-8.28-1.3 62.488 62.488 0 00-13.23 1 73.203 73.203 0 00-13.21 3.65l-1.93-2.26 3.59-1.73a43.526 43.526 0 0111.85-4.64 48.304 48.304 0 0113.08-1.4c3.135.087 6.249.537 9.28 1.34a53.364 53.364 0 018.05 2.89 126.352 126.352 0 017.6 3.8 114.15 114.15 0 007.93 3.9A84.956 84.956 0 0075 78.36a63.502 63.502 0 0015.08 2.04z" fill="url(#_Linear2)"/><path d="M98.25 39.22a10.997 10.997 0 00-5.77 1.4 25.672 25.672 0 00-6.33 5.59 111.252 111.252 0 00-8.38 11.25C74.59 62.24 70.62 68.42 65.86 76 59.447 86.347 53.493 93.813 48 98.4c-5.493 4.587-11.253 6.787-17.28 6.6-6.38-.22-12.38-3.407-18-9.56C7.1 89.287 2.86 80.753 0 69.84l5.34 1c2.947 8.667 6.683 15.567 11.21 20.7 4.527 5.133 9.31 7.8 14.35 8 4.7.167 9.45-1.803 14.25-5.91 4.8-4.107 10.107-10.82 15.92-20.14 5.227-8.327 9.61-15.113 13.15-20.36A105.477 105.477 0 0183.56 41 23.712 23.712 0 0191 35.17a17.012 17.012 0 017.44-1.34c6.047.213 11.413 3.827 16.1 10.84 4.687 7.013 8.84 17.723 12.46 32.13l-5.8-2.39c-3.62-11.927-7.287-20.737-11-26.43-3.713-5.693-7.697-8.613-11.95-8.76z" fill="url(#_Linear3)"/><path d="M77.76 120.42a13.37 13.37 0 008.34-2.83c2.76-2 6.253-5.783 10.48-11.35 3.287-4.267 5.987-7.797 8.1-10.59 2.113-2.793 4.113-5.253 6-7.38a119.886 119.886 0 015.76-6.12c1.973-1.953 4.403-4.337 7.29-7.15l3.3 1.8a1259.773 1259.773 0 00-6.74 7.77 178.913 178.913 0 00-5.36 6.55 524.762 524.762 0 00-5.81 7.55c-2.113 2.793-4.82 6.38-8.12 10.76-4.473 6-8.473 10.27-12 12.81a18.145 18.145 0 01-11.47 3.56 19.335 19.335 0 01-6.1-1.14 24.032 24.032 0 01-6.34-3.93 81.477 81.477 0 01-8.46-8.22c-3.24-3.54-7.34-8.15-12.3-13.83-3.773-4.293-7.177-7.897-10.21-10.81a50.518 50.518 0 00-9.08-7.06 43.574 43.574 0 00-9.52-4.21 64.823 64.823 0 00-11.64-2.25l1.32-4c4.105.314 8.185.906 12.21 1.77A37.027 37.027 0 0127.53 76a53.317 53.317 0 019.67 7.16 134.547 134.547 0 0110.86 11.45c4.953 5.68 9 10.203 12.14 13.57 3.14 3.367 5.74 5.957 7.8 7.77a19.186 19.186 0 005.26 3.55 13.74 13.74 0 004.5.92z" fill="url(#_Linear4)"/></g><defs><linearGradient id="_Linear1" x1="0" y1="0" x2="1" y2="0" gradientUnits="userSpaceOnUse" gradientTransform="rotate(-14.996 239.82 38.244) scale(118.62)"><stop offset="0" stop-color="#ff5800"/><stop offset=".2" stop-color="#ff5800"/><stop offset=".24" stop-color="#ff7000"/><stop offset=".32" stop-color="#ff9500"/><stop offset=".4" stop-color="#ffb200"/><stop offset=".47" stop-color="#ffc600"/><stop offset=".55" stop-color="#ffd300"/><stop offset=".62" stop-color="gold"/><stop offset=".66" stop-color="#ffce00"/><stop offset=".72" stop-color="#ffb600"/><stop offset=".81" stop-color="#ff8e00"/><stop offset=".9" stop-color="#ff5800"/><stop offset="1" stop-color="#ff5800"/></linearGradient><linearGradient id="_Linear2" x1="0" y1="0" x2="1" y2="0" gradientUnits="userSpaceOnUse" gradientTransform="translate(2.35 74.07) scale(119.89)"><stop offset="0" stop-color="#ff5800"/><stop offset=".09" stop-color="#ff5800"/><stop offset=".19" stop-color="#ff7907"/><stop offset=".31" stop-color="#ff990e"/><stop offset=".4" stop-color="#ffad12"/><stop offset=".47" stop-color="#ffb414"/><stop offset=".53" stop-color="#ffad12"/><stop offset=".62" stop-color="#ff980e"/><stop offset=".73" stop-color="#ff7707"/><stop offset=".82" stop-color="#ff5800"/><stop offset="1" stop-color="#ff5800"/></linearGradient><linearGradient id="_Linear3" x1="0" y1="0" x2="1" y2="0" gradientUnits="userSpaceOnUse" gradientTransform="scale(125.7) rotate(11.997 -2.12 .333)"><stop offset="0" stop-color="#ff5800"/><stop offset=".5" stop-color="#ff5800"/><stop offset=".64" stop-color="#ce056a" stop-opacity=".99"/><stop offset=".76" stop-color="#cf0768" stop-opacity=".99"/><stop offset=".81" stop-color="#d20d60" stop-opacity=".99"/><stop offset=".85" stop-color="#d81753" stop-opacity=".99"/><stop offset=".88" stop-color="#e12541" stop-opacity=".99"/><stop offset=".91" stop-color="#ec3829"/><stop offset=".94" stop-color="#f94e0c"/><stop offset=".95" stop-color="#ff5800"/><stop offset="1" stop-color="#ff5800"/></linearGradient><linearGradient id="_Linear4" x1="0" y1="0" x2="1" y2="0" gradientUnits="userSpaceOnUse" gradientTransform="scale(121.61) rotate(-7.998 6.086 -.04)"><stop offset="0" stop-color="#ff5800"/><stop offset=".06" stop-color="#fc5400"/><stop offset=".13" stop-color="#f54700"/><stop offset=".19" stop-color="#e83300"/><stop offset=".26" stop-color="#d61600"/><stop offset=".3" stop-color="#c80000"/><stop offset=".48" stop-color="#c80000"/><stop offset=".91" stop-color="#ff5800"/><stop offset="1" stop-color="#ff5800"/></linearGradient></defs></svg>